<?xml version="1.0" encoding="iso-8859-1"?>
<!-- Generator: Adobe Illustrator 19.0.0, SVG Export Plug-In . SVG Version: 6.00 Build 0)  -->
<svg version="1.1" id="Capa_1" xmlns="http://www.w3.org/2000/svg" xmlns:xlink="http://www.w3.org/1999/xlink" x="0px" y="0px"
	 viewBox="0 0 480.007 480.007" style="enable-background:new 0 0 480.007 480.007;" xml:space="preserve">
<g>
	<g>
		<path d="M192.007,72.004h-32c-4.418,0-8,3.582-8,8v32c0,4.418,3.582,8,8,8h32c4.418,0,8-3.582,8-8v-32
			C200.007,75.585,196.425,72.004,192.007,72.004z M184.007,104.004h-16v-16h16V104.004z"/>
	</g>
</g>
<g>
	<g>
		<path d="M256.007,72.004h-32c-4.418,0-8,3.582-8,8v32c0,4.418,3.582,8,8,8h32c4.418,0,8-3.582,8-8v-32
			C264.007,75.585,260.425,72.004,256.007,72.004z M248.007,104.004h-16v-16h16V104.004z"/>
	</g>
</g>
<g>
	<g>
		<path d="M320.007,72.004h-32c-4.418,0-8,3.582-8,8v32c0,4.418,3.582,8,8,8h32c4.418,0,8-3.582,8-8v-32
			C328.007,75.585,324.425,72.004,320.007,72.004z M312.007,104.004h-16v-16h16V104.004z"/>
	</g>
</g>
<g>
	<g>
		<path d="M192.007,136.004h-32c-4.418,0-8,3.582-8,8v32c0,4.418,3.582,8,8,8h32c4.418,0,8-3.582,8-8v-32
			C200.007,139.585,196.425,136.004,192.007,136.004z M184.007,168.004h-16v-16h16V168.004z"/>
	</g>
</g>
<g>
	<g>
		<path d="M256.007,136.004h-32c-4.418,0-8,3.582-8,8v32c0,4.418,3.582,8,8,8h32c4.418,0,8-3.582,8-8v-32
			C264.007,139.585,260.425,136.004,256.007,136.004z M248.007,168.004h-16v-16h16V168.004z"/>
	</g>
</g>
<g>
	<g>
		<path d="M320.007,136.004h-32c-4.418,0-8,3.582-8,8v32c0,4.418,3.582,8,8,8h32c4.418,0,8-3.582,8-8v-32
			C328.007,139.585,324.425,136.004,320.007,136.004z M312.007,168.004h-16v-16h16V168.004z"/>
	</g>
</g>
<g>
	<g>
		<path d="M192.007,200.004h-32c-4.418,0-8,3.582-8,8v32c0,4.418,3.582,8,8,8h32c4.418,0,8-3.582,8-8v-32
			C200.007,203.585,196.425,200.004,192.007,200.004z M184.007,232.004h-16v-16h16V232.004z"/>
	</g>
</g>
<g>
	<g>
		<path d="M256.007,200.004h-32c-4.418,0-8,3.582-8,8v32c0,4.418,3.582,8,8,8h32c4.418,0,8-3.582,8-8v-32
			C264.007,203.585,260.425,200.004,256.007,200.004z M248.007,232.004h-16v-16h16V232.004z"/>
	</g>
</g>
<g>
	<g>
		<path d="M320.007,200.004h-32c-4.418,0-8,3.582-8,8v32c0,4.418,3.582,8,8,8h32c4.418,0,8-3.582,8-8v-32
			C328.007,203.585,324.425,200.004,320.007,200.004z M312.007,232.004h-16v-16h16V232.004z"/>
	</g>
</g>
<g>
	<g>
		<path d="M192.007,264.004h-32c-4.418,0-8,3.582-8,8v32c0,4.418,3.582,8,8,8h32c4.418,0,8-3.582,8-8v-32
			C200.007,267.585,196.425,264.004,192.007,264.004z M184.007,296.004h-16v-16h16V296.004z"/>
	</g>
</g>
<g>
	<g>
		<path d="M256.007,264.004h-32c-4.418,0-8,3.582-8,8v32c0,4.418,3.582,8,8,8h32c4.418,0,8-3.582,8-8v-32
			C264.007,267.585,260.425,264.004,256.007,264.004z M248.007,296.004h-16v-16h16V296.004z"/>
	</g>
</g>
<g>
	<g>
		<path d="M320.007,264.004h-32c-4.418,0-8,3.582-8,8v32c0,4.418,3.582,8,8,8h32c4.418,0,8-3.582,8-8v-32
			C328.007,267.585,324.425,264.004,320.007,264.004z M312.007,296.004h-16v-16h16V296.004z"/>
	</g>
</g>
<g>
	<g>
		<path d="M192.007,328.004h-32c-4.418,0-8,3.582-8,8v32c0,4.418,3.582,8,8,8h32c4.418,0,8-3.582,8-8v-32
			C200.007,331.585,196.425,328.004,192.007,328.004z M184.007,360.004h-16v-16h16V360.004z"/>
	</g>
</g>
<g>
	<g>
		<path d="M256.007,328.004h-32c-4.418,0-8,3.582-8,8v32c0,4.418,3.582,8,8,8h32c4.418,0,8-3.582,8-8v-32
			C264.007,331.585,260.425,328.004,256.007,328.004z M248.007,360.004h-16v-16h16V360.004z"/>
	</g>
</g>
<g>
	<g>
		<path d="M320.007,328.004h-32c-4.418,0-8,3.582-8,8v32c0,4.418,3.582,8,8,8h32c4.418,0,8-3.582,8-8v-32
			C328.007,331.585,324.425,328.004,320.007,328.004z M312.007,360.004h-16v-16h16V360.004z"/>
	</g>
</g>
<g>
	<g>
		<path d="M440.007,464.004v-16.696c8.163-1.363,15.832-4.823,22.256-10.04c17.829-14.485,22.896-39.57,12.088-59.84
			c-5.292-8.652-6.87-19.073-4.376-28.904c2.402-7.281,2.68-15.095,0.8-22.528c-3.614-14.329-14.896-25.459-29.272-28.88
			c-21.46-5.246-43.108,7.898-48.354,29.357c-1.611,6.59-1.519,13.482,0.266,20.026c3.017,9.834,1.948,20.468-2.968,29.504
			c-13.263,22.953-5.407,52.313,17.547,65.575c4.281,2.474,8.919,4.271,13.75,5.329c0.752,0.16,1.512,0.232,2.264,0.352v16.744h-64
			v-424c0-4.418-3.582-8-8-8h-24v-24c0-4.418-3.582-8-8-8h-160c-4.418,0-8,3.582-8,8v24h-24c-4.418,0-8,3.582-8,8v424h-64v-16.696
			c26.116-4.392,43.728-29.124,39.335-55.24c-0.861-5.118-2.546-10.062-4.991-14.64c-5.292-8.652-6.87-19.073-4.376-28.904
			c2.402-7.281,2.68-15.095,0.8-22.528c-3.614-14.329-14.896-25.459-29.272-28.88c-21.46-5.246-43.109,7.898-48.354,29.357
			c-1.611,6.59-1.519,13.482,0.266,20.026c3.017,9.834,1.948,20.468-2.968,29.504c-13.263,22.953-5.407,52.313,17.546,65.575
			c4.281,2.474,8.919,4.271,13.75,5.329c0.752,0.16,1.512,0.232,2.264,0.352v16.744h-40v16h480v-16H440.007z M40.007,430.972
			c-17.077-4.358-27.388-21.735-23.029-38.812c0.725-2.842,1.839-5.57,3.309-8.108c7.081-12.754,8.711-27.827,4.52-41.8
			c-0.544-2.038-0.813-4.139-0.8-6.248c-0.017-7.333,3.337-14.268,9.096-18.808c4.211-3.376,9.451-5.208,14.848-5.192
			c1.996,0.002,3.985,0.233,5.928,0.688c12.83,3.203,20.635,16.2,17.432,29.03c-0.146,0.586-0.314,1.165-0.504,1.738
			c-3.961,13.997-1.994,29.008,5.44,41.512c2.487,4.619,3.779,9.786,3.76,15.032c0.028,14.595-9.858,27.345-24,30.952v-94.952h-16
			V430.972z M168.007,16.004h144v16h-144V16.004z M232.007,464.004h-32v-48h32V464.004z M280.007,464.004h-32v-48h32V464.004z
			 M344.007,464.004h-48v-56c0-4.418-3.582-8-8-8h-96c-4.418,0-8,3.582-8,8v56h-48v-416h208V464.004z M424.007,430.972
			c-17.077-4.358-27.388-21.735-23.029-38.812c0.725-2.842,1.839-5.57,3.309-8.108c7.092-12.75,8.733-27.823,4.552-41.8
			c-0.555-2.036-0.835-4.138-0.832-6.248c-0.017-7.333,3.337-14.268,9.096-18.808c4.211-3.376,9.451-5.208,14.848-5.192
			c1.996,0.002,3.985,0.233,5.928,0.688c12.83,3.203,20.635,16.2,17.432,29.03c-0.146,0.586-0.314,1.165-0.504,1.738
			c-3.961,13.997-1.994,29.008,5.44,41.512c2.487,4.619,3.779,9.786,3.76,15.032c0.028,14.595-9.858,27.345-24,30.952v-94.952h-16
			V430.972z"/>
	</g>
</g>
<g>
</g>
<g>
</g>
<g>
</g>
<g>
</g>
<g>
</g>
<g>
</g>
<g>
</g>
<g>
</g>
<g>
</g>
<g>
</g>
<g>
</g>
<g>
</g>
<g>
</g>
<g>
</g>
<g>
</g>
</svg>
